<svg width="86" height="86" viewBox="0 0 86 86" fill="none" xmlns="http://www.w3.org/2000/svg">
<path fill-rule="evenodd" clip-rule="evenodd" d="M21.4379 1.1395C10.3511 2.10222 1.71522 10.9674 0.931667 22.0686C0.427611 29.1707 0 36.9752 0 43C0 49.0272 0.427611 56.8269 0.929278 63.9314C1.71522 75.0326 10.3511 83.9002 21.4379 84.8581C28.5687 85.4792 36.5189 86 43 86C49.4811 86 57.4289 85.4768 64.5621 84.8605C75.6489 83.9002 84.2848 75.0326 85.0707 63.9314C85.5724 56.8269 86 49.0248 86 43C86 36.9728 85.5724 29.1707 85.0707 22.0686C84.2848 10.9674 75.6489 2.09983 64.5621 1.14189C57.4289 0.518389 49.4811 0 43 0C36.5189 0 28.5711 0.523167 21.4379 1.1395ZM50.2933 21.5H41.4639C41.1773 21.5 40.8882 21.6911 40.8882 22.0733C40.8882 22.2644 40.9838 22.4556 41.1749 22.5511C43.834 23.6096 46.1147 25.4408 47.7227 27.8084C49.3306 30.1761 50.1919 32.9713 50.1953 35.8333V50.1667C50.2064 52.6541 49.5655 55.1011 48.3366 57.2638C47.1077 59.4265 45.3337 61.2296 43.1911 62.4933C43.1433 62.4933 43.1194 62.5172 43.0956 62.5411C43.0717 62.565 43.0478 62.5889 43 62.5889C42.7109 62.78 42.5198 63.0667 42.5198 63.4489C42.5198 64.0222 42.9976 64.5 43.5757 64.5H50.0998C58.0667 64.5 64.4952 58.0978 64.4952 50.1667V35.8333C64.6863 27.9022 58.2578 21.5 50.2933 21.5ZM36.1845 32.7756C36.8227 29.9058 38.331 27.3029 40.5036 25.3222C40.7903 25.1311 40.6947 24.6533 40.5036 24.4622C39.1587 23.4111 37.5294 22.6467 35.8978 22.0733C34.5484 21.6909 33.1193 21.6909 31.7698 22.0733C26.875 23.6022 23.2296 27.4244 21.9802 32.2978C21.9802 32.3049 21.9802 32.3169 21.9754 32.3312L21.9682 32.3671C21.9013 32.6609 21.6624 33.7311 23.0361 33.7311H35.2242C35.9934 33.7311 36.1845 32.8711 36.1845 32.7756ZM36.0889 35.8333H44.7272C45.0138 35.8333 45.3005 36.0244 45.1094 36.4067C45.1096 36.5513 45.053 36.6903 44.9517 36.7937C44.9136 36.8303 44.8701 36.8609 44.8227 36.8844C42.1632 37.9425 39.8819 39.7736 38.2735 42.1413C36.6651 44.5089 35.8035 47.3044 35.7999 50.1667C35.7999 54.3711 37.625 58.1933 40.5036 60.7733C40.7903 60.9644 40.7903 61.3467 40.5036 61.5378C38.5829 63.0667 36.2801 64.0222 33.7861 64.4044C26.7794 63.3533 21.4044 57.3333 21.5 50.0711C21.5956 42.14 28.1244 35.8333 36.0889 35.8333Z" fill="black"/>
</svg>
