<svg width="110" height="69" viewBox="0 0 110 69" fill="none" xmlns="http://www.w3.org/2000/svg">
<path fill-rule="evenodd" clip-rule="evenodd" d="M102.887 60.7101L103.278 60.8284C103.214 61.097 103.08 61.3114 102.872 61.4691C102.664 61.6293 102.412 61.7082 102.119 61.7082C101.745 61.7082 101.442 61.5874 101.207 61.341C100.973 61.097 100.858 60.7594 100.858 60.3257C100.858 60.0423 100.912 59.7984 101.017 59.5889C101.122 59.3794 101.273 59.2217 101.471 59.1157C101.669 59.0098 101.894 58.9556 102.146 58.9556C102.43 58.9556 102.664 59.0246 102.85 59.1601C103.038 59.2981 103.165 59.4829 103.234 59.717L102.855 59.8156C102.791 59.6554 102.696 59.5297 102.571 59.446C102.447 59.3597 102.3 59.3178 102.131 59.3178C101.887 59.3178 101.684 59.4065 101.525 59.5815C101.366 59.7565 101.288 60.0103 101.288 60.3356C101.288 60.6633 101.364 60.9122 101.513 61.0798C101.662 61.2474 101.858 61.3311 102.095 61.3311C102.285 61.3311 102.454 61.2745 102.598 61.1636C102.742 61.0551 102.84 60.9024 102.887 60.7101ZM102.114 58.2976C101.777 58.2976 101.447 58.3863 101.127 58.5588C100.806 58.7338 100.557 58.9827 100.376 59.308C100.195 59.6332 100.105 59.9709 100.105 60.3208C100.105 60.6707 100.193 61.0059 100.371 61.3262C100.547 61.6466 100.797 61.8955 101.114 62.0754C101.432 62.2552 101.765 62.344 102.112 62.344C102.456 62.344 102.791 62.2552 103.109 62.0754C103.427 61.8955 103.676 61.6466 103.852 61.3262C104.028 61.0059 104.116 60.6707 104.116 60.3208C104.116 59.9709 104.026 59.6332 103.847 59.308C103.669 58.9827 103.417 58.7338 103.097 58.5588C102.779 58.3839 102.449 58.2976 102.114 58.2976ZM102.114 57.8959C102.518 57.8959 102.911 57.9994 103.297 58.2089C103.681 58.4184 103.982 58.7165 104.194 59.1034C104.41 59.4928 104.517 59.8994 104.517 60.3183C104.517 60.7348 104.412 61.1389 104.199 61.5234C103.989 61.9102 103.693 62.2084 103.312 62.4204C102.931 62.6347 102.532 62.7407 102.117 62.7407C101.701 62.7407 101.3 62.6347 100.919 62.4204C100.538 62.2084 100.239 61.9078 100.029 61.5234C99.8164 61.1389 99.7113 60.7372 99.7113 60.3183C99.7113 59.8969 99.8189 59.4928 100.034 59.1034C100.252 58.7165 100.55 58.4159 100.934 58.2089C101.317 57.9994 101.711 57.8959 102.114 57.8959ZM84.4409 62.7727L82.2824 31.8533L79.5275 62.7727H75.4722L73.2453 22.7503H73.1793L70.3536 62.7727H66.3324L64.0567 33.8741L60.9351 62.7727H56.8798L54.6529 25.806H54.5869L51.7611 62.7727H47.74L44.1613 24.909L47.4736 23.8962L49.7689 52.0556H49.8349L52.36 22.3979L57.0216 20.9711L59.2069 52.0556H59.2729L62.524 19.288L64.6262 18.6448L66.2347 18.1519L68.3589 51.6366H68.4249L70.9549 16.7054L75.6238 15.2761L77.7969 51.6366H77.8629L80.7962 13.694L81.0064 13.63L82.7176 13.1051L83.9838 12.7182L84.348 12.6073L86.4649 50.2147H86.5333L89.0413 11.1731L93.7616 9.72899L95.9078 50.2172H95.9738L98.8533 8.16417L102.024 7.19324L97.6336 62.7727H93.5782L91.3513 17.632H91.2853L88.4596 62.7727H84.4409ZM31.5211 56.9225V34.6207C31.5211 30.3846 33.4987 27.6616 37.0676 26.6044C41.2622 25.36 42.7875 28.9036 42.7875 32.8711V56.7624C42.7875 60.72 40.9053 62.9083 37.1384 62.9083C35.0998 62.9083 33.6502 62.3612 32.7507 61.304C31.944 60.3577 31.5211 58.9087 31.5211 56.9225ZM34.8456 34.983V57.0556C34.8456 59.1724 35.6107 60.2321 37.1384 60.2321C38.6882 60.2321 39.4655 59.1724 39.4655 57.0556V33.6005C39.4655 31.2816 39.1404 29.2609 37.07 29.983C35.1707 30.6409 34.8456 32.6666 34.8456 34.983ZM22.0856 34.5271V46.4616C25.2487 45.5154 25.9258 45.2689 25.9258 42.0703C25.9258 41.5774 25.9404 36.5478 25.9404 36.2299C25.9404 34.1476 25.8842 33.0116 23.6793 33.8889L22.0856 34.5271ZM18.7611 62.7727V32.1318L24.486 30.0988C27.3851 29.0687 29.2624 31.4418 29.2624 35.296C29.2624 35.466 29.26 42.1861 29.2576 42.4202C29.2184 44.9239 28.6904 46.2793 26.1067 47.0728V47.1393C27.214 47.2502 27.9962 47.6026 28.4509 48.194C28.9056 48.7855 29.1329 49.6627 29.1329 50.8234V59.6875C29.1329 61.0724 29.128 62.6939 29.128 62.6939L25.8109 62.7013C25.8109 62.7013 25.8109 61.5505 25.8109 60.5919V51.0896C25.8109 49.4139 25.0042 48.8298 23.5742 49.1354C23.2369 49.2069 22.4302 49.3966 22.0904 49.5543V62.7703H18.7611V62.7727ZM16.6491 43.6745L13.3247 44.5075V40.3872C13.3247 38.5661 12.4764 37.3832 11.198 37.7947C9.74355 38.263 8.9051 39.7415 8.9051 42.3832V57.0408C8.9051 57.9945 9.11533 58.7609 9.53577 59.3375C9.95621 59.9142 10.5111 60.2345 11.198 60.2025C13.2513 60.1113 13.3247 58.0265 13.3247 55.9639V51.1684L10.5771 51.8634V48.8569L16.6491 47.1911V55.3676C16.6491 59.2242 16.2727 62.7999 11.1662 62.7999C7.10355 62.7999 5.5831 60.2222 5.5831 56.3336V41.4542C5.5831 37.8761 7.00822 35.4315 11.2322 34.224C14.9551 33.1619 16.6491 36.1856 16.6491 39.0934V43.6745ZM8.24266 68.8472H102.672C106.482 68.8472 109.602 65.7028 109.602 61.861V10.419V8.17649C109.602 1.79153 103.772 -1.05719 98.4696 0.63085L96.5311 1.24939L8.13022 29.3447C4.08222 30.6311 0.398438 33.8075 0.398438 38.5735V61.309C0.398438 65.1483 3.42466 68.8472 8.24266 68.8472Z" fill="black"/>
</svg>
