<svg width="102" height="102" viewBox="0 0 102 102" fill="none" xmlns="http://www.w3.org/2000/svg">
<path fill-rule="evenodd" clip-rule="evenodd" d="M47.4248 101.877C47.5989 101.814 47.7701 101.749 47.9386 101.682C51.4873 100.285 54.2927 97.9738 56.3124 94.7827C58.308 91.6296 59.3151 88.2657 59.3151 84.7244C59.3151 81.9021 58.4099 79.3431 56.6242 77.1075C55.6737 75.9175 54.5294 74.9239 53.1992 74.1274C55.1294 73.0708 56.6913 71.7676 57.8731 70.2121C59.7587 67.7303 60.703 64.7931 60.703 61.459C60.703 58.9752 60.165 56.685 59.0869 54.6118C57.991 52.5043 56.3828 50.8114 54.2896 49.5555C52.255 48.3348 49.8101 47.5332 46.965 47.138C45.2977 46.8813 42.4544 46.7566 38.4038 46.7566H18.7247L11.1662 82.8505C4.17876 74.1231 0 63.0496 0 51C0 22.8335 22.8335 0 51 0C79.1665 0 102 22.8335 102 51C102 79.1665 79.1665 102 51 102C49.7981 102 48.6059 101.958 47.4248 101.877ZM26.5702 70.0785L29.2364 57.4049H37.7829C40.8509 57.4049 42.7866 57.4779 43.5901 57.624C45.0267 57.9162 46.1346 58.5006 46.9138 59.3772C47.693 60.2537 48.0825 61.3738 48.0825 62.7373C48.0825 64.1252 47.6686 65.4279 46.8407 66.6453C46.0129 67.8628 44.7711 68.7393 43.1153 69.275C41.4596 69.8107 38.7447 70.0785 34.9706 70.0785H26.5702ZM21.7126 93.3805L24.6345 79.392H37.7829C40.8509 79.392 43.0423 79.9703 44.3571 81.1269C45.672 82.2834 46.3294 83.7505 46.3294 85.5279C46.3294 86.9889 45.8729 88.3768 44.9598 89.6916C44.0467 91.0065 42.8293 91.95 41.3074 92.5222C39.7856 93.0944 36.7968 93.3805 32.3409 93.3805H21.7126ZM70.498 13.6C70.498 30.1444 63.2423 37.4 46.698 37.4C63.2423 37.4 70.498 44.6556 70.498 61.2C70.498 44.6556 77.7536 37.4 94.298 37.4C77.7536 37.4 70.498 30.1444 70.498 13.6Z" fill="black"/>
</svg>
