<svg width="84" height="56" viewBox="0 0 84 56" fill="none" xmlns="http://www.w3.org/2000/svg">
<path d="M1.0422 1.29661C1.231 1.804 1.526 2.61821 1.703 3.10201C1.88 3.5858 2.0688 4.09321 2.1278 4.22301C2.1868 4.3528 2.3874 4.88381 2.5762 5.40301C2.7532 5.92221 3.7916 8.70701 4.8654 11.598C5.9392 14.489 7.1664 17.8048 7.603 18.973C8.0278 20.1412 8.547 21.5218 8.7476 22.041C8.9364 22.5602 9.196 23.2446 9.314 23.575C9.9394 25.286 10.789 27.5752 11.0958 28.354C11.5796 29.6284 14.7538 38.1834 14.7892 38.325C14.8128 38.384 14.8836 38.5964 14.9662 38.797C15.037 38.9858 15.1904 39.387 15.2848 39.682C15.391 39.977 15.5208 40.3192 15.5798 40.449C15.6388 40.5788 15.981 41.511 16.3468 42.514C16.7126 43.517 17.0666 44.4728 17.1374 44.638C17.1964 44.8032 17.2672 44.9802 17.2908 45.051C17.3144 45.169 19.2142 50.2784 19.757 51.718C19.9222 52.1428 20.2644 53.0396 20.5122 53.724L20.9724 54.963H24.8428H28.7014L29.4566 52.957C29.8696 51.8478 30.436 50.3138 30.731 49.535C31.0142 48.7562 31.38 47.7768 31.5334 47.352C31.6868 46.9272 32.0998 45.8416 32.442 44.933C32.7724 44.0244 33.2326 42.7972 33.445 42.219C33.6574 41.629 34.33 39.8 34.9554 38.148C36.6546 33.5578 39.109 26.9498 41.174 21.392C42.2006 18.6308 43.5458 14.9964 44.183 13.309C44.8084 11.6216 45.5872 9.52121 45.9058 8.64801C46.2244 7.77481 46.5312 6.97241 46.5666 6.87801C46.602 6.78361 46.6492 6.64201 46.6728 6.58301C46.6846 6.51221 47.2038 5.108 47.8292 3.45601C48.4546 1.804 48.962 0.447002 48.962 0.423406C48.962 0.399804 47.192 0.388006 45.0208 0.388006H41.0914L40.0766 3.18461C39.522 4.7304 38.9202 6.35881 38.755 6.81901C38.578 7.26741 38.3656 7.85741 38.283 8.11701C38.2004 8.3766 37.3508 10.713 36.395 13.309C35.4392 15.905 34.6132 18.1824 34.5424 18.383C34.4834 18.5718 34.389 18.8432 34.33 18.973C34.2474 19.1736 31.1912 27.5516 30.5422 29.357C30.436 29.6756 29.61 31.9412 28.725 34.372C27.0966 38.8324 26.896 39.3752 25.657 42.809C25.0198 44.579 24.772 45.1218 24.772 44.7796C24.772 44.697 24.0286 42.573 23.1082 40.0596C22.1996 37.5462 21.3854 35.3042 21.3028 35.08C21.2202 34.8558 20.583 33.0976 19.8868 31.186C19.1906 29.2744 18.4354 27.1976 18.2112 26.584C17.987 25.9704 17.7274 25.2742 17.6448 25.05C17.5504 24.8258 17.1728 23.7874 16.807 22.749C16.4412 21.7106 16.0872 20.7548 16.0282 20.625C15.9692 20.4952 15.6034 19.4804 15.2022 18.383C14.8128 17.2738 14.093 15.315 13.621 14.017C13.149 12.719 12.087 9.7926 11.261 7.527C10.4468 5.24961 9.727 3.29081 9.668 3.161C9.609 3.03121 9.3612 2.35861 9.1134 1.66241L8.665 0.388006H4.6884H0.7118L1.0422 1.29661Z" fill="black"/>
<path d="M75.3822 0.411602C75.3704 0.435204 75.3586 9.1318 75.3468 19.74C75.3232 30.3482 75.276 39.2926 75.217 39.623C74.509 44.2486 72.3614 46.9744 68.6444 47.9656C67.2756 48.3314 65.0218 48.3314 63.6176 47.9538C61.4464 47.3874 59.818 46.3372 58.5554 44.6852C57.7648 43.6704 56.9388 41.629 56.7972 40.3546C56.7618 40.0478 56.7146 39.6466 56.691 39.4696C56.6674 39.2926 56.6438 38.1008 56.6438 36.8146L56.632 34.49H52.9032H49.1744L49.2334 37.6996C49.2688 39.4696 49.316 41.0272 49.3514 41.157C49.3868 41.2868 49.4458 41.6526 49.4812 41.983C49.5992 42.8444 50.0948 44.697 50.4488 45.582C51.322 47.765 52.3486 49.3226 53.918 50.892C55.2986 52.2844 56.0656 52.8272 57.871 53.724C59.4168 54.4792 60.6558 54.9158 62.119 55.1872C62.6382 55.2934 63.2282 55.3996 63.417 55.4468C63.6176 55.4822 64.6442 55.5294 65.718 55.553C67.8302 55.6002 69.317 55.4468 70.91 55.022C71.205 54.9394 71.5236 54.8568 71.618 54.845C71.9248 54.7742 72.739 54.4674 73.6122 54.078C78.0962 52.1074 81.3766 48.1662 82.6392 43.222C82.7926 42.6084 82.9578 41.8532 82.9932 41.5464C83.0404 41.2396 83.123 40.6024 83.182 40.1304C83.241 39.623 83.2882 31.304 83.3 19.8226V0.388006H79.347C77.1758 0.388006 75.394 0.399804 75.3822 0.411602Z" fill="black"/>
</svg>
