<svg width="73" height="24" viewBox="0 0 73 24" fill="none" xmlns="http://www.w3.org/2000/svg">
<path d="M11.58 12.38C11.7 9.83 8.73 8.75 6.51 8.75C2.76 8.75 1.29 11.03 1.29 12.89C1.29 13.73 1.53 14.66 2.28 15.38C3.03 16.07 4.26 16.58 5.94 16.97C8.07 17.48 9.48 17.93 9.48 19.34C9.48 20.51 8.43 21.32 6.51 21.32C4.53 21.32 3.39 20.45 3.09 18.56L0.93 19.1C0.81 21.92 3.57 23.27 6.15 23.27C10.17 23.27 11.94 21.2 11.94 18.89C11.94 16.46 10.23 15.38 7.14 14.72C4.29 14.09 3.66 13.58 3.66 12.5C3.66 11.48 4.68 10.7 6.24 10.7C7.62 10.7 9.27 11.21 9.36 12.86L11.58 12.38ZM23.4722 15.05L20.5622 15.11C19.5722 15.14 18.5222 15.2 17.7122 15.44C15.6122 16.04 14.3822 17.39 14.3822 19.52C14.3822 21.83 16.1822 23.3 18.7622 23.3C20.6822 23.3 22.3022 22.31 23.5022 20.93L23.7722 21.02C23.8622 22.04 24.7022 23.3 26.2922 23.3C26.7122 23.3 27.3722 23.15 27.5522 23.09V21.32C26.2322 21.47 25.9922 20.78 25.9922 19.61V14.03C25.9922 9.65 23.1422 8.75 20.4122 8.75C17.5922 8.75 14.7722 10.19 14.7722 12.62C14.7722 12.86 14.7722 13.01 14.8322 13.28L17.3822 13.46C17.0822 12.62 17.0822 10.7 20.4422 10.7C22.9922 10.7 23.4722 12.53 23.4722 14.09V15.05ZM17.0822 19.34C17.0822 17.48 18.9122 16.94 20.7122 16.85L23.4722 16.76V18.56C22.4522 20.33 20.6522 21.29 19.2722 21.29C17.9822 21.29 17.0822 20.66 17.0822 19.34ZM34.0329 23H36.4629L41.7729 8.9H39.2829L35.2329 19.64L31.2129 8.9H28.6929L34.0329 23ZM53.4661 18.23C53.4961 19.07 53.1661 19.73 52.7161 20.21C52.0261 20.9 51.1861 21.29 50.1061 21.29C47.1361 21.29 46.0261 19.13 45.9061 16.46H56.1661V14.78H56.1361C56.0761 11.06 53.4661 8.75 49.9561 8.75C46.1161 8.75 43.4461 11.81 43.4461 16.19C43.4461 20.42 45.5161 23.27 49.6861 23.27C51.6961 23.27 53.2861 22.82 54.4861 21.62C55.2661 20.87 55.9861 19.76 55.8961 18.56L53.4661 18.23ZM49.9861 10.73C52.1161 10.73 53.6461 12.32 53.5861 14.78H45.9661C46.2661 12.5 47.4961 10.73 49.9861 10.73ZM70.2033 20.9L70.1133 23H72.2433V0.499998H69.7533V10.7C68.8533 9.5 67.4433 8.66 65.4333 8.66C61.6233 8.66 58.4433 11.12 58.4433 16.1C58.4433 20.36 61.2633 23.21 64.9533 23.21C67.2033 23.21 68.8233 22.28 69.8133 20.78L70.2033 20.9ZM65.5233 21.05C63.4533 21.05 61.2333 19.76 61.2333 15.86C61.2333 11.87 63.5133 10.7 65.4633 10.7C68.2833 10.7 69.7533 13.07 69.7533 15.89V16.1C69.7533 19.13 68.0133 21.05 65.5233 21.05Z" fill="#1D1D1D"/>
</svg>
