<svg enable-background="new 0 0 24 24" height="512" viewBox="0 0 24 24" width="512" xmlns="http://www.w3.org/2000/svg"><path d="m16.5 18.5h-9c-.246 0-.477.121-.616.323-.14.202-.172.46-.086.69l1.5 4c.11.293.389.487.702.487h6c.312 0 .592-.194.702-.487l1.5-4c.086-.23.054-.488-.086-.69-.139-.202-.37-.323-.616-.323z" fill="#90a4ae"/><path d="m7.5 5.5h9c.246 0 .477-.121.616-.323.14-.202.172-.46.086-.69l-1.5-4c-.11-.293-.39-.487-.702-.487h-6c-.313 0-.592.194-.702.487l-1.5 4c-.086.23-.054.488.086.69.139.202.37.323.616.323z" fill="#90a4ae"/><path d="m16.25 4h-8.5c-1.517 0-2.75 1.233-2.75 2.75v10.5c0 1.517 1.233 2.75 2.75 2.75h8.5c1.517 0 2.75-1.233 2.75-2.75v-10.5c0-1.517-1.233-2.75-2.75-2.75z" fill="#607d8b"/><path d="m16.25 20h-8.5c-1.517 0-2.75-1.233-2.75-2.75v-10.5c0-1.517 1.233-2.75 2.75-2.75h8.5c1.517 0 2.75 1.233 2.75 2.75v10.5c0 1.517-1.233 2.75-2.75 2.75zm-8.5-14.5c-.689 0-1.25.561-1.25 1.25v10.5c0 .689.561 1.25 1.25 1.25h8.5c.689 0 1.25-.561 1.25-1.25v-10.5c0-.689-.561-1.25-1.25-1.25z"/><path d="m14.25 15c-.192 0-.384-.073-.53-.22l-2.25-2.25c-.141-.141-.22-.331-.22-.53v-3.75c0-.414.336-.75.75-.75s.75.336.75.75v3.439l2.03 2.03c.293.293.293.768 0 1.061-.146.147-.338.22-.53.22z"/><path d="m15 24h-6c-.312 0-.592-.194-.702-.486l-1.5-4c-.146-.388.051-.82.439-.966.388-.145.821.052.965.438l1.318 3.514h4.961l1.317-3.514c.145-.388.578-.584.965-.438.388.146.584.578.439.966l-1.5 4c-.11.292-.39.486-.702.486z"/><path d="m16.5 5.5c-.304 0-.589-.186-.702-.486l-1.318-3.514h-4.96l-1.318 3.514c-.145.386-.579.582-.965.438-.388-.145-.585-.578-.439-.966l1.5-4c.11-.292.39-.486.702-.486h6c.312 0 .592.194.702.486l1.5 4c.146.388-.051.82-.439.966-.086.032-.176.048-.263.048z"/></svg>